<?xml version="1.0" encoding="UTF-8"?>
<svg width="35px" height="35px" viewBox="0 0 35 35" version="1.1" xmlns="http://www.w3.org/2000/svg" xmlns:xlink="http://www.w3.org/1999/xlink">
    <!-- Generator: Sketch 52.4 (67378) - http://www.bohemiancoding.com/sketch -->
    <title>Combined Shape</title>
    <desc>Created with Sketch.</desc>
    <defs>
        <path d="M22.3889664,10.0195394 C29.3426161,10.0195394 35,15.6215949 35,22.5073124 C35,29.39303 29.3426161,34.9948718 22.3889664,34.9948718 C19.7951532,34.9948718 17.3164828,34.2262555 15.2005449,32.7691315 C14.1916024,33.405515 10.5452675,35.3721305 7.87369541,32.4986844 C7.77521508,32.3929409 7.7356948,32.2451136 7.76752466,32.1041223 C7.79956815,31.9629174 7.89933017,31.8469199 8.03391281,31.7937277 C8.07172409,31.7789877 11.7791552,30.2915292 11.1872053,28.3116691 C10.5104469,26.9246135 9.98386561,25.1530361 9.84351514,23.7884109 C9.83205959,23.706433 9.5516257,21.5727909 10.0326251,19.4490022 C7.36399033,19.5111933 4.75618481,18.4935723 2.81616545,16.5386795 C0.977083079,14.6850707 -0.0228872792,12.2333169 0.000397671693,9.63501761 C0.0236825789,7.03586378 1.06787294,4.60162713 2.94070776,2.78070272 C6.80387024,-0.974793625 13.0333372,-0.919037922 16.8270721,2.90396334 C18.8718736,4.96494686 19.803618,7.67056513 19.6360306,10.3246468 C20.535865,10.1261374 21.4589844,10.0195394 22.3889664,10.0195394 Z M3.43738177,15.9221628 C5.82568946,18.3288421 9.32611964,19.1809852 12.5725518,18.1459807 C12.6161309,18.1320951 12.6609918,18.1252592 12.7054254,18.1252592 C12.8239863,18.1252592 12.9397701,18.173538 13.0237241,18.2626189 C13.0784116,18.3194427 14.3043953,19.5499125 16.5173183,18.8697361 C16.1400598,18.5787813 15.7480611,18.1613615 15.6201008,17.6249536 C15.533797,17.262435 15.5399921,16.698256 16.0601647,16.0693492 C16.0704186,16.0567455 16.081527,16.0449962 16.0930626,16.0336741 C16.155227,15.9734324 16.2163232,15.9121225 16.2761377,15.8505991 C19.650103,12.3764445 19.6191276,6.96045478 16.2058557,3.52026634 C12.7481501,0.0360715417 7.07132651,-0.0141299195 3.55081572,3.40790054 C1.84674321,5.06476231 0.896547092,7.27896708 0.87518478,9.64270808 C0.854036056,12.0058082 1.76407104,14.2360347 3.43738177,15.9221628 Z M22.3889664,34.1198711 C28.8602548,34.1198711 34.1249993,28.9104551 34.1249993,22.5073124 C34.1249993,16.1039562 28.8602548,10.8945402 22.3889664,10.8945402 C21.4219742,10.8945402 20.4622451,11.0133414 19.5333846,11.2430398 C19.2281437,13.1368097 18.3579495,14.9628877 16.9039764,16.4600661 C16.8439483,16.5220169 16.7824248,16.583754 16.7200468,16.6446366 C16.494888,16.9229877 16.4134975,17.1769857 16.4709622,17.4205162 C16.6008451,17.9701687 17.3848423,18.4241181 17.6757971,18.5527192 C17.832383,18.6217196 17.9347085,18.7759555 17.9370584,18.9470677 C17.9394082,19.1181799 17.8422096,19.275193 17.6875464,19.3484658 C16.7512358,19.7928021 15.9264365,19.9536604 15.2236161,19.9536604 C13.8803533,19.9536604 12.981854,19.3672646 12.5971185,19.0532385 C12.0523526,19.2119872 11.5018722,19.3172234 10.9510982,19.3814706 C10.4185889,21.4258181 10.7091699,23.6621062 10.7121072,23.6848036 C10.8456217,24.9791468 11.3457137,26.6505349 11.9876515,27.9568409 C11.9972645,27.9760671 12.0051686,27.9961476 12.0117909,28.0166555 C12.7041438,30.1847176 10.1887303,31.7257956 8.97150511,32.3290676 C11.5255844,34.3764326 14.9115126,31.913784 14.9474013,31.8872947 C15.1007827,31.7736472 15.3103471,31.7727927 15.4645831,31.884304 C17.4837498,33.3467687 19.8782526,34.1198711 22.3889664,34.1198711 Z M26.7381217,20.4293993 C26.9797296,20.4293993 27.1756221,20.6252918 27.1756221,20.8668997 C27.1756221,21.1085076 26.9797296,21.3044 26.7381217,21.3044 L18.863115,21.3044 C18.6215072,21.3044 18.4256147,21.1085076 18.4256147,20.8668997 C18.4256147,20.6252918 18.6215072,20.4293993 18.863115,20.4293993 L26.7381217,20.4293993 Z M26.7381217,24.6138511 C26.9797296,24.6138511 27.1756221,24.8097436 27.1756221,25.0513515 C27.1756221,25.2929594 26.9797296,25.4888519 26.7381217,25.4888519 L18.863115,25.4888519 C18.6215072,25.4888519 18.4256147,25.2929594 18.4256147,25.0513515 C18.4256147,24.8097436 18.6215072,24.6138511 18.863115,24.6138511 L26.7381217,24.6138511 Z M9.8,3.5 C13.1758721,3.5 15.925,6.24912791 15.925,9.625 C15.925,13.0008721 13.1758721,15.75 9.8,15.75 C6.42412791,15.75 3.675,13.0008721 3.675,9.625 C3.675,6.24912791 6.42412791,3.5 9.8,3.5 Z M9.8,14.8953488 C12.705814,14.8953488 15.0703488,12.530814 15.0703488,9.625 C15.0703488,6.71918605 12.705814,4.35465116 9.8,4.35465116 C6.89418605,4.35465116 4.52965116,6.71918605 4.52965116,9.625 C4.52965116,12.530814 6.89418605,14.8953488 9.8,14.8953488 Z M9.8,8.34302326 C10.0421512,8.34302326 10.2273256,8.52819767 10.2273256,8.77034884 L10.2273256,12.0465116 C10.2273256,12.2886628 10.0421512,12.4738372 9.8,12.4738372 C9.55784884,12.4738372 9.37267442,12.2886628 9.37267442,12.0465116 L9.37267442,8.77034884 C9.37267442,8.52819767 9.55784884,8.34302326 9.8,8.34302326 Z M9.8,6.77616279 C10.1133721,6.77616279 10.3697674,7.03255814 10.3697674,7.34593023 C10.3697674,7.65930233 10.1133721,7.91569767 9.8,7.91569767 C9.48662791,7.91569767 9.23023256,7.65930233 9.23023256,7.34593023 C9.23023256,7.03255814 9.48662791,6.77616279 9.8,6.77616279 Z" id="path-1"></path>
    </defs>
    <g id="Page-1" stroke="none" stroke-width="1" fill="none" fill-rule="evenodd">
        <g id="HR-/-Basic-informations-/-Feedback-Form-/-Step-6-/-Review" transform="translate(-1211.000000, -370.000000)">
            <g id="Group-32" transform="translate(140.000000, 370.000000)">
                <g id="Group-21">
                    <g id="Group-23">
                        <g id="Icon-/-Form-/-Info" transform="translate(1071.000000, 0.000000)">
                            <mask id="mask-2" fill="white">
                                <use xlink:href="#path-1"></use>
                            </mask>
                            <use id="Combined-Shape" fill="#000000" fill-rule="nonzero" xlink:href="#path-1"></use>
                        </g>
                    </g>
                </g>
            </g>
        </g>
    </g>
</svg>